<?xml version="1.0" encoding="UTF-8" standalone="no"?>
<svg
   xmlns:dc="http://purl.org/dc/elements/1.1/"
   xmlns:cc="http://creativecommons.org/ns#"
   xmlns:rdf="http://www.w3.org/1999/02/22-rdf-syntax-ns#"
   xmlns:svg="http://www.w3.org/2000/svg"
   xmlns="http://www.w3.org/2000/svg"
   xmlns:sodipodi="http://sodipodi.sourceforge.net/DTD/sodipodi-0.dtd"
   xmlns:inkscape="http://www.inkscape.org/namespaces/inkscape"
   version="1.0"
   width="5.6423497pt"
   height="6.1235132pt"
   viewBox="0 0 5.6423497 6.1235132"
   id="svg20"
   sodipodi:docname="start.svg"
   inkscape:version="0.92.4 (5da689c313, 2019-01-14)">
  <metadata
     id="metadata15" />
  <defs
     id="defs24" />
  <sodipodi:namedview
     pagecolor="#ffffff"
     bordercolor="#666666"
     borderopacity="1"
     objecttolerance="10"
     gridtolerance="10"
     guidetolerance="10"
     inkscape:pageopacity="0"
     inkscape:pageshadow="2"
     inkscape:window-width="1280"
     inkscape:window-height="977"
     id="namedview22"
     showgrid="false"
     inkscape:zoom="45.254834"
     inkscape:cx="5.3068368"
     inkscape:cy="2.7852592"
     inkscape:window-x="0"
     inkscape:window-y="0"
     inkscape:window-maximized="1"
     inkscape:current-layer="svg20" />
  <g
     id="start-here-kde"
     transform="matrix(0.03937008,0,0,0.03937008,-1.1293038,-0.75104512)">
    <metadata
       id="metadata2">
<rdf:RDF>
  <cc:Work
     rdf:about="">
    <dc:format>image/svg+xml</dc:format>
    <dc:type
       rdf:resource="http://purl.org/dc/dcmitype/StillImage" />
    <dc:title />
  </cc:Work>
</rdf:RDF>
</metadata>
    <g
       transform="matrix(0.1,0,0,-0.1,0,200)"
       id="g18"
       style="fill:#000000;stroke:none">
      <path
         d="m 989,1784 c -42,-111 -189,-539 -189,-553 0,-21 188,-562 199,-574 4,-4 56,123 115,282 l 107,290 -107,288 c -58,158 -108,290 -110,292 -2,2 -8,-9 -15,-25 z"
         id="path4"
         style="fill:#008ca5;fill-opacity:1"
         inkscape:connector-curvature="0" />
      <path
         d="m 350,1228 c 1,-7 45,-105 98,-217 l 97,-205 209,-98 c 115,-54 212,-96 215,-93 3,3 -41,98 -97,210 l -102,205 -210,105 c -117,59 -210,100 -210,93 z"
         id="path6"
         style="fill:#008ca5;fill-opacity:1"
         inkscape:connector-curvature="0" />
      <path
         d="M 1445,1136 1235,1033 1132,825 c -57,-114 -101,-209 -98,-212 2,-3 99,39 214,94 l 210,98 102,214 c 55,117 100,215 98,216 -2,2 -98,-43 -213,-99 z"
         id="path8"
         style="fill:#008ca5;fill-opacity:1"
         inkscape:connector-curvature="0" />
      <path
         d="m 455,643 c -88,-30 -164,-59 -168,-62 -4,-4 69,-35 163,-68 l 170,-61 170,61 c 94,33 167,64 163,68 -6,6 -332,121 -337,118 -1,0 -73,-25 -161,-56 z"
         id="path10"
         style="fill:#008ca5;fill-opacity:1"
         inkscape:connector-curvature="0" />
      <path
         d="m 1213,641 c -89,-31 -164,-59 -167,-62 -3,-3 72,-33 166,-66 l 171,-61 169,60 c 92,33 168,63 168,67 0,5 -296,108 -335,116 -5,1 -83,-23 -172,-54 z"
         id="path12"
         style="fill:#008ca5;fill-opacity:1"
         inkscape:connector-curvature="0" />
    </g>
  </g>
</svg>
