<?xml version="1.0" encoding="UTF-8" standalone="no"?>
<svg
   xmlns:dc="http://purl.org/dc/elements/1.1/"
   xmlns:cc="http://creativecommons.org/ns#"
   xmlns:rdf="http://www.w3.org/1999/02/22-rdf-syntax-ns#"
   xmlns:svg="http://www.w3.org/2000/svg"
   xmlns="http://www.w3.org/2000/svg"
   xmlns:sodipodi="http://sodipodi.sourceforge.net/DTD/sodipodi-0.dtd"
   xmlns:inkscape="http://www.inkscape.org/namespaces/inkscape"
   width="16"
   height="16"
   id="svg2"
   version="1.0"
   sodipodi:docname="checkmarks.svg"
   inkscape:version="0.92.4 (5da689c313, 2019-01-14)">
  <sodipodi:namedview
     pagecolor="#ffffff"
     bordercolor="#666666"
     borderopacity="1"
     objecttolerance="10"
     gridtolerance="10"
     guidetolerance="10"
     inkscape:pageopacity="0"
     inkscape:pageshadow="2"
     inkscape:window-width="1280"
     inkscape:window-height="977"
     id="namedview13"
     showgrid="false"
     inkscape:zoom="11.41347"
     inkscape:cx="6.8958385"
     inkscape:cy="3.6410058"
     inkscape:window-x="0"
     inkscape:window-y="0"
     inkscape:window-maximized="1"
     inkscape:current-layer="svg2" />
  <defs
     id="defs4">
    <style
       id="current-color-scheme">      .ColorScheme-Text {
        color:#31363b;
      }
      .ColorScheme-Background{
        color:#eff0f1;
      }
      .ColorScheme-ViewText {
        color:#31363b;
      }
      .ColorScheme-ViewBackground{
        color:#fcfcfc;
      }
      .ColorScheme-ViewHover {
        color:#3daee9;
      }
      .ColorScheme-ViewFocus{
        color:#3daee9;
      }
      .ColorScheme-ButtonText {
        color:#31363b;
      }
      .ColorScheme-ButtonBackground{
        color:#eff0f1;
      }
      .ColorScheme-ButtonHover {
        color:#3daee9;
      }
      .ColorScheme-ButtonFocus{
        color:#3daee9;
      }</style>
  </defs>
  <metadata
     id="metadata7">
    <rdf:RDF>
      <cc:Work
         rdf:about="">
        <dc:format>image/svg+xml</dc:format>
        <dc:type
           rdf:resource="http://purl.org/dc/dcmitype/StillImage" />
        <dc:title />
      </cc:Work>
    </rdf:RDF>
  </metadata>
  <g
     id="layer1"
     transform="translate(0,-64)">
    <g
       id="checkbox"
       transform="translate(18,0)">
      <rect
         ry="0"
         rx="16.456314"
         y="64"
         x="0"
         height="16"
         width="16"
         id="rect3706"
         style="opacity:0.01000001;fill:#7d7d7d;fill-opacity:1;fill-rule:nonzero;stroke:none" />
      <path
         id="rect2910"
         d="m 11.597539,68.121217 c -0.241798,0.0059 -0.495929,0.110094 -0.685935,0.300097 L 6.7959842,72.536935 5.4241106,71.165062 C 5.0441016,70.785058 4.4562235,70.761079 4.0951087,71.122195 l -0.085743,0.0857 c -0.3611155,0.361116 -0.337138,0.949001 0.042876,1.32901 l 1.9077612,1.886327 c 0.033405,0.05165 0.062042,0.0835 0.1071775,0.128608 l 0.042875,0.04291 0.042873,0.04291 c 0.034353,0.03059 0.070118,0.06066 0.1071776,0.0857 0.00915,0.0062 0.012131,0.01538 0.021432,0.02139 0.046,0.02925 0.1011662,0.04341 0.1500483,0.0643 0.042783,0.01797 0.083818,0.03169 0.1286134,0.04291 0.015466,0.0036 0.027294,0.01797 0.042873,0.02139 0.1185004,0.02292 0.2439036,0.02379 0.3644039,0 0.022659,-0.0034 0.041997,-0.01591 0.064303,-0.02139 0.1627942,-0.04415 0.3200059,-0.127084 0.4501459,-0.257223 l 0.042875,-0.04291 c 0.045135,-0.04511 0.073773,-0.07696 0.1071777,-0.128609 l 4.6515028,-4.630052 c 0.380011,-0.380011 0.403988,-0.967899 0.04291,-1.329013 l -0.0857,-0.08571 C 12.060092,68.197881 11.839385,68.11504 11.597584,68.121205 Z"
         style="color:#31363b;fill:#007f98;fill-opacity:1;fill-rule:nonzero;stroke:none;stroke-width:0.68593663"
         class="ColorScheme-ButtonText"
         inkscape:connector-curvature="0" />
    </g>
    <g
       id="radiobutton">
      <rect
         ry="0"
         rx="87.767006"
         y="64"
         x="0"
         height="16"
         width="16"
         id="rect3736"
         style="opacity:0;fill:#9f9f9f;fill-opacity:1;fill-rule:nonzero;stroke:none" />
      <path
         d="m 10.788542,71.860995 a 3,3 0 0 1 -3,3 3,3 0 0 1 -3,-3 3,3 0 0 1 3,-3 3,3 0 0 1 3,3 z"
         id="path3716"
         style="color:#31363b;fill:#007f98;fill-opacity:1;fill-rule:nonzero;stroke:none;stroke-width:1.34164071"
         class="ColorScheme-ButtonText"
         inkscape:connector-curvature="0" />
    </g>
  </g>
</svg>
